<?xml version="1.0" encoding="UTF-8"?>
<svg width="700pt" height="700pt" version="1.1" viewBox="0 0 700 700"
    xmlns="http://www.w3.org/2000/svg" xmlns:xlink="http://www.w3.org/1999/xlink">
    <g>
        <path
            d="m566.16 93.52h-122.64v-56c0-12.879-10.641-23.52-23.52-23.52h-140c-12.879 0-23.52 10.641-23.52 23.52v56h-122.64c-12.879 0-23.52 10.641-23.52 23.52 0 12.879 10.641 23.52 23.52 23.52h25.199v381.36c0 12.879 10.641 23.52 23.52 23.52h334.88c12.879 0 23.52-10.641 23.52-23.52l0.003907-380.8h25.199c12.879 0 23.52-10.641 23.52-23.52 0-12.883-10.078-24.082-23.52-24.082zm-262.08-31.918h92.398v31.922l-92.398-0.003907zm189.84 436.8h-287.84v-357.28h287.84z" />
        <path
            d="m297.36 433.44c12.879 0 23.52-10.641 23.52-23.52v-180.32c0-12.879-10.641-23.52-23.52-23.52s-23.52 10.641-23.52 23.52v180.32c0 13.438 10.641 23.52 23.52 23.52z" />
        <path
            d="m402.08 433.44c12.879 0 23.52-10.641 23.52-23.52l0.003906-180.32c0-12.879-10.641-23.52-23.52-23.52-12.879 0-23.52 10.641-23.52 23.52v180.32c-0.003906 13.438 10.637 23.52 23.516 23.52z" />

    </g>
</svg>