<?xml version="1.0" encoding="UTF-8"?>
<svg width="700pt" height="700pt" version="1.1" viewBox="0 0 700 700"
    xmlns="http://www.w3.org/2000/svg" xmlns:xlink="http://www.w3.org/1999/xlink">
    <g>
        <path
            d="m532.56 11.199c-22.398 0-44.801 8.9609-60.48 24.641l-86.238 87.359h-237.44c-36.957 0-67.199 30.242-67.199 67.199v291.2c0 36.961 30.238 67.199 67.199 67.199h291.2c36.961 0 67.199-30.238 67.199-67.199l0.003906-237.44 87.359-87.359c33.602-33.602 33.602-87.359 0-120.96-16.801-15.68-38.082-24.641-61.602-24.641zm-70.559 470.4c0 12.32-10.078 22.398-22.398 22.398h-291.2c-12.32 0-22.398-10.078-22.398-22.398v-291.2c0-12.32 10.078-22.398 22.398-22.398h192.64l-77.277 77.281c-44.801 44.801-70.559 105.28-69.441 169.12 0 12.32 10.078 22.398 22.398 22.398 63.84 0 124.32-24.641 169.12-69.441l77.281-77.281v191.52zm99.68-356.16-209.44 209.44c-30.238 30.238-70.559 50.398-113.12 54.879 5.6016-42.559 24.641-82.879 54.879-113.12l209.45-209.44c16.801-15.68 42.559-13.441 58.238 2.2383 14.559 16.801 14.559 40.324 0 56.004z" />

    </g>
</svg>