<?xml version="1.0" encoding="UTF-8"?>
<svg width="700pt" height="700pt" version="1.1" viewBox="0 0 700 700" xmlns="http://www.w3.org/2000/svg" xmlns:xlink="http://www.w3.org/1999/xlink">
 
 <g>
  <path d="m498.75 0h-315c-6.9609 0-13.641 2.7656-18.562 7.6875s-7.6875 11.602-7.6875 18.562v105c0 2.3203 0.92188 4.5469 2.5625 6.1875s3.8672 2.5625 6.1875 2.5625h17.5v411.25c0 2.3203 0.92188 4.5469 2.5625 6.1875s3.8672 2.5625 6.1875 2.5625h297.5c2.3203 0 4.5469-0.92188 6.1875-2.5625s2.5625-3.8672 2.5625-6.1875v-411.25h17.5c2.3203 0 4.5469-0.92188 6.1875-2.5625s2.5625-3.8672 2.5625-6.1875v-105c0-6.9609-2.7656-13.641-7.6875-18.562s-11.602-7.6875-18.562-7.6875zm-17.5 542.5h-280v-105h280zm-236.25-122.5v-122.5h192.5v122.5zm236.25 0h-26.25v-131.25c0-2.3203-0.92188-4.5469-2.5625-6.1875s-3.8672-2.5625-6.1875-2.5625h-210c-4.832 0-8.75 3.918-8.75 8.75v131.25h-26.25v-166.25h280zm0-253.75h-218.75v17.5h218.75v52.5h-280v-96.25h280zm26.25-43.75h-332.5v-96.25c0-4.832 3.918-8.75 8.75-8.75h17.5v43.75h17.5v-43.75h26.25v78.75h17.5v-78.75h26.25v43.75h17.5v-43.75h26.25v78.75h17.5v-78.75h26.25v43.75h17.5v-43.75h26.25v78.75h17.5v-78.75h26.25v43.75h17.5v-43.75h17.5c2.3203 0 4.5469 0.92188 6.1875 2.5625s2.5625 3.8672 2.5625 6.1875z"/>
  <path d="m271.25 323.75h17.5v17.5h-17.5z"/>
  <path d="m306.25 323.75h17.5v17.5h-17.5z"/>
  <path d="m393.75 323.75h17.5v17.5h-17.5z"/>
  <path d="m271.25 367.5h140v17.5h-140z"/>
  <path d="m227.5 166.25h17.5v17.5h-17.5z"/>
  
 </g>
</svg>
